<mxfile host="app.diagrams.net" modified="2023-02-08T17:45:32.148Z" agent="5.0 (Windows NT 10.0; Win64; x64) AppleWebKit/537.36 (KHTML, like Gecko) Chrome/109.0.0.0 Safari/537.36 Edg/109.0.1518.78" etag="ZAqMnRnlvyrn9JMqPIhg" version="20.8.17" type="github">
  <diagram name="Страница 1" id="fmT0ofDzabVhrrgedcQF">
    <mxGraphModel dx="1004" dy="573" grid="1" gridSize="10" guides="1" tooltips="1" connect="1" arrows="1" fold="1" page="1" pageScale="1" pageWidth="827" pageHeight="1169" math="0" shadow="0">
      <root>
        <mxCell id="0" />
        <mxCell id="1" parent="0" />
        <mxCell id="fvHZYyWfnrOP4d3qYMUE-24" value="" style="edgeStyle=orthogonalEdgeStyle;rounded=0;orthogonalLoop=1;jettySize=auto;html=1;" edge="1" parent="1" source="fvHZYyWfnrOP4d3qYMUE-1" target="fvHZYyWfnrOP4d3qYMUE-3">
          <mxGeometry relative="1" as="geometry" />
        </mxCell>
        <mxCell id="fvHZYyWfnrOP4d3qYMUE-1" value="Покупка билета" style="rounded=0;whiteSpace=wrap;html=1;" vertex="1" parent="1">
          <mxGeometry x="310" y="170" width="120" height="60" as="geometry" />
        </mxCell>
        <mxCell id="fvHZYyWfnrOP4d3qYMUE-7" style="edgeStyle=orthogonalEdgeStyle;rounded=0;orthogonalLoop=1;jettySize=auto;html=1;entryX=0.5;entryY=0;entryDx=0;entryDy=0;" edge="1" parent="1" source="fvHZYyWfnrOP4d3qYMUE-3" target="fvHZYyWfnrOP4d3qYMUE-11">
          <mxGeometry relative="1" as="geometry">
            <mxPoint x="220" y="260" as="targetPoint" />
          </mxGeometry>
        </mxCell>
        <mxCell id="fvHZYyWfnrOP4d3qYMUE-3" value="Регистрация в аэропорту" style="whiteSpace=wrap;html=1;rounded=0;" vertex="1" parent="1">
          <mxGeometry x="160" y="170" width="120" height="60" as="geometry" />
        </mxCell>
        <mxCell id="fvHZYyWfnrOP4d3qYMUE-15" value="" style="edgeStyle=orthogonalEdgeStyle;rounded=0;orthogonalLoop=1;jettySize=auto;html=1;" edge="1" parent="1" source="fvHZYyWfnrOP4d3qYMUE-8" target="fvHZYyWfnrOP4d3qYMUE-13">
          <mxGeometry relative="1" as="geometry" />
        </mxCell>
        <mxCell id="fvHZYyWfnrOP4d3qYMUE-8" value="Объявление посадки на борт" style="whiteSpace=wrap;html=1;rounded=0;glass=0;" vertex="1" parent="1">
          <mxGeometry x="160" y="330" width="120" height="60" as="geometry" />
        </mxCell>
        <mxCell id="fvHZYyWfnrOP4d3qYMUE-12" style="edgeStyle=orthogonalEdgeStyle;rounded=0;orthogonalLoop=1;jettySize=auto;html=1;" edge="1" parent="1" source="fvHZYyWfnrOP4d3qYMUE-11" target="fvHZYyWfnrOP4d3qYMUE-8">
          <mxGeometry relative="1" as="geometry" />
        </mxCell>
        <mxCell id="fvHZYyWfnrOP4d3qYMUE-11" value="Ожидание готовности самолета к вылету" style="rounded=0;whiteSpace=wrap;html=1;glass=0;" vertex="1" parent="1">
          <mxGeometry x="160" y="250" width="120" height="60" as="geometry" />
        </mxCell>
        <mxCell id="fvHZYyWfnrOP4d3qYMUE-17" value="" style="edgeStyle=orthogonalEdgeStyle;rounded=0;orthogonalLoop=1;jettySize=auto;html=1;" edge="1" parent="1" source="fvHZYyWfnrOP4d3qYMUE-13" target="fvHZYyWfnrOP4d3qYMUE-16">
          <mxGeometry relative="1" as="geometry" />
        </mxCell>
        <mxCell id="fvHZYyWfnrOP4d3qYMUE-13" value="Проверка наличия всех пассажиров" style="rounded=0;whiteSpace=wrap;html=1;glass=0;" vertex="1" parent="1">
          <mxGeometry x="310" y="260" width="120" height="60" as="geometry" />
        </mxCell>
        <mxCell id="fvHZYyWfnrOP4d3qYMUE-19" value="" style="edgeStyle=orthogonalEdgeStyle;rounded=0;orthogonalLoop=1;jettySize=auto;html=1;" edge="1" parent="1" source="fvHZYyWfnrOP4d3qYMUE-16" target="fvHZYyWfnrOP4d3qYMUE-18">
          <mxGeometry relative="1" as="geometry" />
        </mxCell>
        <mxCell id="fvHZYyWfnrOP4d3qYMUE-21" value="" style="edgeStyle=orthogonalEdgeStyle;rounded=0;orthogonalLoop=1;jettySize=auto;html=1;" edge="1" parent="1" source="fvHZYyWfnrOP4d3qYMUE-16" target="fvHZYyWfnrOP4d3qYMUE-20">
          <mxGeometry relative="1" as="geometry" />
        </mxCell>
        <mxCell id="fvHZYyWfnrOP4d3qYMUE-16" value="Есть опоздавшие?" style="rhombus;whiteSpace=wrap;html=1;rounded=0;glass=0;" vertex="1" parent="1">
          <mxGeometry x="470" y="280" width="100" height="110" as="geometry" />
        </mxCell>
        <mxCell id="fvHZYyWfnrOP4d3qYMUE-23" style="edgeStyle=orthogonalEdgeStyle;rounded=0;orthogonalLoop=1;jettySize=auto;html=1;entryX=1;entryY=0.5;entryDx=0;entryDy=0;exitX=1;exitY=0.5;exitDx=0;exitDy=0;" edge="1" parent="1" source="fvHZYyWfnrOP4d3qYMUE-18" target="fvHZYyWfnrOP4d3qYMUE-16">
          <mxGeometry relative="1" as="geometry" />
        </mxCell>
        <mxCell id="fvHZYyWfnrOP4d3qYMUE-18" value="Передать данные о пассажире и объявить о просьбе пройти на борт голосом" style="whiteSpace=wrap;html=1;rounded=0;glass=0;" vertex="1" parent="1">
          <mxGeometry x="450" y="160" width="140" height="80" as="geometry" />
        </mxCell>
        <mxCell id="fvHZYyWfnrOP4d3qYMUE-20" value="Вылет" style="whiteSpace=wrap;html=1;rounded=0;glass=0;" vertex="1" parent="1">
          <mxGeometry x="460" y="420" width="120" height="60" as="geometry" />
        </mxCell>
      </root>
    </mxGraphModel>
  </diagram>
</mxfile>
